<svg width="338" height="138" viewBox="0 0 338 138" fill="none" xmlns="http://www.w3.org/2000/svg">
<path d="M337.046 123.027C337.751 123.463 337.968 124.388 337.531 125.092L330.421 136.568C329.985 137.272 329.06 137.489 328.356 137.053C327.652 136.616 327.435 135.692 327.871 134.988L334.191 124.787L323.991 118.467C323.286 118.03 323.069 117.106 323.505 116.401C323.942 115.697 324.866 115.48 325.571 115.916L337.046 123.027ZM1.25635 0.819336L2.51282 2.47955e-05C29.9062 42.0097 83.4179 79.7503 145.123 103.477C206.812 127.197 276.435 136.812 335.913 122.842L336.256 124.302L336.599 125.762C276.373 139.908 206.119 130.145 144.047 106.277C81.9907 82.4157 27.8552 44.3569 -0.00012207 1.63865L1.25635 0.819336Z" fill="black"/>
</svg>
