<svg width="360" height="58" viewBox="0 0 360 58" fill="none" xmlns="http://www.w3.org/2000/svg">
<path d="M1.23241 55.1238C0.417315 54.9757 -0.123432 54.1949 0.0246104 53.3798L2.43714 40.0972C2.58519 39.2821 3.36596 38.7413 4.18105 38.8894C4.99615 39.0374 5.53689 39.8182 5.38884 40.6333L3.24438 52.4401L15.0512 54.5846C15.8663 54.7326 16.407 55.5134 16.259 56.3285C16.111 57.1436 15.3302 57.6843 14.5151 57.5363L1.23241 55.1238ZM358.449 45.8365L357.579 47.0591C316.702 18.0035 253.085 2.48757 186.977 3.01281C120.887 3.5379 52.5819 20.0946 2.3545 54.881L1.50047 53.6479L0.646426 52.4148C51.5055 17.1909 120.452 0.541265 186.953 0.0129017C253.437 -0.515324 317.75 15.0682 359.318 44.6139L358.449 45.8365Z" fill="black"/>
</svg>
