<svg width="1682" height="633" viewBox="0 0 1682 633" fill="none" xmlns="http://www.w3.org/2000/svg">
<path d="M482.857 0C669.218 0 820.293 151.075 820.293 337.436C820.293 366.098 816.718 393.925 809.992 420.496C809.999 420.496 810.005 420.496 810.012 420.496C836.115 420.496 861.527 423.461 885.928 429.071C884.276 417.586 883.421 405.844 883.421 393.902C883.421 258.629 993.081 148.968 1128.35 148.968C1234.05 148.968 1324.11 215.914 1358.44 309.716C1371.77 307.786 1385.41 306.786 1399.28 306.786C1555.42 306.786 1682 433.363 1682 589.503C1682 745.643 1555.42 872.22 1399.28 872.22C1286.95 872.22 1189.93 806.708 1144.32 711.808C1146.38 726.888 1147.45 742.286 1147.45 757.933C1147.45 944.293 996.372 1095.37 810.012 1095.37C623.651 1095.37 472.576 944.293 472.576 757.933C472.576 729.27 476.15 701.443 482.876 674.871C482.87 674.871 482.864 674.872 482.857 674.872C425.29 674.872 371.09 660.455 323.67 635.037C262.149 751.825 139.574 831.449 -1.59863 831.449C-204.509 831.449 -369 666.958 -369 464.048C-369 261.138 -204.509 96.6465 -1.59863 96.6465C72.1718 96.6465 140.864 118.389 198.42 155.814C258.375 62.1133 363.363 2.11623e-05 482.857 0Z" fill="url(#paint0_linear_135_23)"/>
<defs>
<linearGradient id="paint0_linear_135_23" x1="-168.458" y1="146.132" x2="1154.05" y2="825.717" gradientUnits="userSpaceOnUse">
<stop stop-color="#4B0B22"/>
<stop offset="0.786342" stop-color="#2B0010"/>
</linearGradient>
</defs>
</svg>
