<svg width="1920" height="1080" viewBox="0 0 1920 1080" fill="none" xmlns="http://www.w3.org/2000/svg">
<path d="M793.892 149.952C607.168 207.47 483.661 373.309 471.097 557.242C426.413 559.068 381.229 566.627 336.478 580.412C56.9651 666.513 -99.8271 962.9 -13.7267 1242.41C72.3738 1521.93 368.762 1678.72 648.275 1592.62C892.058 1517.52 1042.49 1282.47 1019.84 1038.16C1034.59 1035.16 1049.33 1031.41 1064.02 1026.89C1069.12 1025.31 1074.18 1023.66 1079.19 1021.93C1081.8 1073.21 1090.75 1125.01 1106.55 1176.33C1209.32 1509.94 1563.07 1697.08 1896.68 1594.31C2085.23 1536.24 2226.99 1397.99 2296.07 1228.52C2306.95 1225.78 2317.82 1222.75 2328.67 1219.41C2662.28 1116.64 2849.42 762.891 2746.66 429.279C2643.89 95.6673 2290.14 -91.4711 1956.53 11.294C1767.98 69.3729 1626.22 207.62 1557.14 377.091C1546.26 379.824 1535.39 382.857 1524.54 386.199C1468.27 403.532 1416.17 428.007 1368.92 458.319C1368.43 456.664 1367.93 455.009 1367.42 453.355C1292.83 211.197 1036.05 75.3587 793.892 149.952Z" fill="url(#paint0_linear_135_10)"/>
<defs>
<linearGradient id="paint0_linear_135_10" x1="1086.09" y1="-74.3368" x2="1625.8" y2="1677.76" gradientUnits="userSpaceOnUse">
<stop offset="0.336538" stop-color="#4B0B22"/>
<stop offset="1" stop-color="#B11A50"/>
</linearGradient>
</defs>
</svg>
