<svg width="1920" height="1080" viewBox="0 0 1920 1080" fill="none" xmlns="http://www.w3.org/2000/svg">
<path d="M515.867 1227.33C731.507 1182.61 901.267 1038.88 987.534 853.459C1003.83 851.541 1020.19 848.897 1036.56 845.502C1179.03 815.955 1297.6 734.827 1376.81 625.662C1445.11 642.489 1518.14 644.698 1591.61 629.462C1830.11 579.999 1991.3 363.688 1978.57 127.678C2233.53 -8.91282 2379.6 -301.346 2317.87 -598.969C2242.74 -961.285 1888.11 -1194.09 1525.79 -1118.95C1163.48 -1043.81 930.675 -689.181 1005.81 -326.866C1010.81 -302.757 1017.05 -279.223 1024.45 -256.314C955.015 -269.15 881.986 -269.015 808.581 -253.792C689.766 -229.151 587.575 -168.635 510.971 -85.9023C425.257 -103.049 334.753 -103.602 243.764 -84.7325C188.86 -73.3462 136.931 -55.5403 88.5965 -32.2639C-76.29 -248.537 -356.023 -363.492 -640.099 -304.579C-1034.59 -222.767 -1288.07 163.353 -1206.25 557.843C-1124.44 952.333 -738.322 1205.81 -343.832 1124C-257.972 1106.19 -178.793 1073.97 -108.296 1030.38C46.0589 1194.18 279.324 1276.38 515.867 1227.33Z" fill="url(#paint0_linear_135_4)"/>
<defs>
<linearGradient id="paint0_linear_135_4" x1="825.293" y1="1163.16" x2="343.45" y2="-1160.25" gradientUnits="userSpaceOnUse">
<stop stop-color="#B11A50"/>
<stop offset="0.663462" stop-color="#4B0B22"/>
</linearGradient>
</defs>
</svg>
