<svg width="1013" height="323" viewBox="0 0 1013 323" fill="none" xmlns="http://www.w3.org/2000/svg">
<path d="M671.944 -163.386C578.196 -180.102 488.509 -120.335 466.939 -28.7622C462.848 -29.7934 458.691 -30.6911 454.473 -31.4433C434.941 -34.926 415.585 -35.0862 396.984 -32.3328C402.863 -98.4812 357.284 -159.306 290.669 -171.184C254.162 -177.694 218.503 -168.224 190.872 -147.783C185.963 -149.188 180.934 -150.357 175.798 -151.273C94.4998 -165.769 16.843 -111.615 2.34703 -30.3163C-12.1489 50.9819 42.0052 128.639 123.303 143.135C169.935 151.449 215.367 137.176 248.37 108.152C248.045 109.734 247.736 111.324 247.451 112.924C230.149 209.957 294.785 302.645 391.818 319.946C485.566 336.662 575.254 276.895 596.824 185.322C600.915 186.353 605.071 187.251 609.289 188.003C657.994 196.688 705.604 184.726 743.135 158.387C761.892 229.187 820.079 286.327 896.935 300.031C1002.58 318.87 1103.5 248.495 1122.34 142.845C1141.18 37.1943 1070.8 -63.7241 965.153 -82.5622C908.044 -92.7451 852.318 -76.8585 810.191 -43.4248C790.316 -103.718 738.827 -151.46 671.944 -163.386Z" fill="url(#paint0_linear_69_620)"/>
<defs>
<linearGradient id="paint0_linear_69_620" x1="572.176" y1="-181.175" x2="480.019" y2="335.673" gradientUnits="userSpaceOnUse">
<stop offset="0.336538" stop-color="#4B0B22"/>
<stop offset="1" stop-color="#B11A50"/>
</linearGradient>
</defs>
</svg>
