<svg width="991" height="1080" viewBox="0 0 991 1080" fill="none" xmlns="http://www.w3.org/2000/svg">
<path d="M586.751 289.679C678.278 79.584 436.887 -106 436.887 -106H991.297C991.297 -106 1017.97 137.452 991.297 289.679C966.308 432.28 860.477 495.341 869.093 639.837C875.923 754.389 1064 999 1064 999H565.126C565.126 999 397.593 861.938 421.298 639.837C436.887 493.771 529.989 419.971 586.751 289.679Z" fill="#4B0B22"/>
<path d="M589.784 383.5C680.784 173.5 440.784 -12 440.784 -12H992C992 -12 1018.52 231.342 992 383.5C967.155 526.036 861.934 589.069 870.5 733.5C877.291 848 1064.28 1092.5 1064.28 1092.5H568.284C568.284 1092.5 401.716 955.5 425.284 733.5C440.784 587.5 533.35 513.733 589.784 383.5Z" fill="black" stroke="black"/>
<path d="M718.125 -163.386C624.378 -180.102 534.691 -120.335 513.121 -28.7619C509.029 -29.7931 504.873 -30.6909 500.655 -31.443C481.122 -34.9258 461.766 -35.086 443.166 -32.3326C449.045 -98.481 403.466 -159.306 336.85 -171.184C300.343 -177.694 264.685 -168.223 237.053 -147.783C232.144 -149.188 227.116 -150.357 221.98 -151.272C140.681 -165.768 63.0247 -111.614 48.5287 -30.3161C34.0328 50.9821 88.1868 128.639 169.485 143.135C216.117 151.45 261.549 137.177 294.552 108.152C294.226 109.734 293.918 111.325 293.633 112.924C276.331 209.958 340.967 302.645 438 319.946C531.748 336.662 621.436 276.895 643.005 185.322C647.097 186.353 651.253 187.252 655.47 188.004C704.176 196.688 751.785 184.726 789.317 158.387C808.074 229.187 866.26 286.328 943.116 300.032C1048.77 318.87 1149.68 248.495 1168.52 142.845C1187.36 37.1946 1116.99 -63.7238 1011.34 -82.5619C954.225 -92.7448 898.499 -76.8583 856.372 -43.4246C836.497 -103.718 785.008 -151.46 718.125 -163.386Z" fill="url(#paint0_linear_191_190)"/>
<defs>
<linearGradient id="paint0_linear_191_190" x1="618.358" y1="-181.175" x2="526.201" y2="335.673" gradientUnits="userSpaceOnUse">
<stop offset="0.336538" stop-color="#4B0B22"/>
<stop offset="1" stop-color="#B11A50"/>
</linearGradient>
</defs>
</svg>
