<svg width="961" height="1080" viewBox="0 0 961 1080" fill="none" xmlns="http://www.w3.org/2000/svg">
<path d="M355.814 291.68C264.287 81.5849 505.677 -103.999 505.677 -103.999H-48.7319C-48.7319 -103.999 -75.4072 139.453 -48.7319 291.68C-23.7434 434.281 82.0881 497.342 73.4721 641.838C66.6417 756.39 -121.435 1001 -121.435 1001H377.439C377.439 1001 544.972 863.939 521.267 641.838C505.677 495.772 412.576 421.972 355.814 291.68Z" fill="#4B0B22"/>
<path d="M352.781 385.5C261.78 175.5 501.781 -10 501.781 -10H-49.4351C-49.4351 -10 -75.9568 233.342 -49.4351 385.5C-24.5906 528.036 80.6312 591.069 72.0649 735.5C65.2738 850 -121.72 1094.5 -121.72 1094.5H374.281C374.281 1094.5 540.849 957.5 517.28 735.5C501.78 589.5 409.215 515.733 352.781 385.5Z" fill="black" stroke="black"/>
<path d="M242.44 -161.378C336.187 -178.094 425.874 -118.327 447.444 -26.7541C451.535 -27.7853 455.692 -28.6831 459.91 -29.4352C479.442 -32.9179 498.799 -33.0782 517.399 -30.3247C511.52 -96.4732 557.099 -157.298 623.715 -169.176C660.222 -175.686 695.88 -166.216 723.512 -145.775C728.421 -147.18 733.449 -148.349 738.585 -149.265C819.884 -163.761 897.54 -109.607 912.036 -28.3083C926.532 52.9899 872.378 130.647 791.08 145.143C744.448 153.457 699.016 139.184 666.013 110.16C666.339 111.742 666.647 113.332 666.932 114.932C684.234 211.965 619.598 304.653 522.565 321.954C428.817 338.67 339.129 278.903 317.56 187.33C313.468 188.361 309.312 189.259 305.095 190.011C256.389 198.696 208.78 186.734 171.248 160.395C152.491 231.195 94.3045 288.335 17.4486 302.039C-88.2015 320.878 -189.12 250.503 -207.958 144.853C-226.796 39.2024 -156.42 -61.716 -50.7702 -80.5541C6.3396 -90.737 62.0655 -74.8505 104.193 -41.4168C124.068 -101.71 175.557 -149.452 242.44 -161.378Z" fill="url(#paint0_linear_190_139)"/>
<defs>
<linearGradient id="paint0_linear_190_139" x1="342.207" y1="-179.167" x2="434.364" y2="337.681" gradientUnits="userSpaceOnUse">
<stop offset="0.336538" stop-color="#4B0B22"/>
<stop offset="1" stop-color="#B11A50"/>
</linearGradient>
</defs>
</svg>
