<svg width="1920" height="665" viewBox="0 0 1920 665" fill="none" xmlns="http://www.w3.org/2000/svg">
<path d="M288.352 0C398.227 0 498.53 40.9876 574.805 108.506C616.751 93.4336 661.968 85.2217 709.104 85.2217C872.738 85.2218 1013.26 184.2 1074.05 325.553C1181.56 335.573 1276.62 388.451 1341.99 466.935C1374.49 442.449 1411.75 425.189 1451.09 416.116C1540.26 277.968 1720.19 223.949 1872.82 296.23C2038.88 374.873 2109.75 573.246 2031.1 739.309C1968.04 872.474 1827.99 944.424 1689.34 927.152C1606.47 989.582 1492.59 1005.02 1392.32 957.532C1383.13 953.183 1374.29 948.41 1365.79 943.25C1294.4 1048.69 1173.66 1118 1036.74 1118C873.1 1118 732.582 1019.02 671.786 877.668C605.493 871.489 543.93 849.015 491.145 814.288C430.665 846.467 361.638 864.704 288.352 864.704C49.5704 864.704 -144 671.133 -144 432.352C-144 193.57 49.5705 0.000181523 288.352 0Z" fill="url(#paint0_linear_203_296)"/>
<defs>
<linearGradient id="paint0_linear_203_296" x1="834.118" y1="-122.134" x2="834.118" y2="1392.54" gradientUnits="userSpaceOnUse">
<stop offset="0.117205"/>
<stop offset="0.717823" stop-color="#B11A50"/>
</linearGradient>
</defs>
</svg>
