<svg width="1920" height="342" viewBox="0 0 1920 342" fill="none" xmlns="http://www.w3.org/2000/svg">
<path d="M170.899 6.22787C279.21 -12.2513 384.977 11.2833 471.521 65.0117C510.334 43.0996 553.527 27.3998 599.99 19.4725C761.294 -8.04787 916.456 65.8877 1000.16 195.002C1107.82 186.799 1210.43 222.936 1288.06 289.307C1315.98 259.705 1349.81 236.424 1387.06 220.864C1451.73 69.6869 1620 -13.823 1782.62 31.7592C1959.54 81.3531 2062.76 264.981 2013.17 441.905C1973.4 583.78 1847.44 678.259 1707.86 684.552C1636.67 760.03 1527.01 794.4 1420.18 764.453C1410.4 761.71 1400.87 758.493 1391.63 754.836C1338.99 870.785 1231.63 959.409 1096.65 982.438C935.346 1009.96 780.184 936.022 696.48 806.907C630.092 811.966 565.627 800.165 507.752 774.811C453.546 816.703 388.57 846.289 316.327 858.615C80.9471 898.774 -142.421 740.515 -182.58 505.135C-222.739 269.755 -64.4809 46.3869 170.899 6.22787Z" fill="url(#paint0_linear_191_192)"/>
<defs>
<linearGradient id="paint0_linear_191_192" x1="688.351" y1="-205.955" x2="943.093" y2="1287.15" gradientUnits="userSpaceOnUse">
<stop offset="0.117205"/>
<stop offset="0.717823" stop-color="#B11A50"/>
</linearGradient>
</defs>
</svg>
