<svg width="960" height="312" viewBox="0 0 960 312" fill="none" xmlns="http://www.w3.org/2000/svg">
<path d="M268.815 312C324.134 312 374.049 288.869 409.418 251.752C425.034 256.737 441.676 259.43 458.945 259.43C504.47 259.43 545.626 240.731 575.156 210.597C596.645 223.856 621.962 231.508 649.066 231.508C702.791 231.508 749.494 201.449 773.28 157.233C877.066 153.309 960 67.9334 960 -36.8125C960 -144.059 873.059 -231 765.812 -231C658.566 -231 571.626 -144.059 571.626 -36.8125C571.626 -33.6527 571.702 -30.5105 571.852 -27.3877C570.39 -26.4286 568.946 -25.4439 567.522 -24.4326C538.725 -50.256 500.67 -65.9647 458.945 -65.9648C428.938 -65.9648 400.829 -57.839 376.695 -43.6709C345.839 -64.3255 308.735 -76.374 268.815 -76.374C230.99 -76.374 195.692 -65.5578 165.842 -46.8516C130.513 -114.295 59.847 -160.313 -21.5684 -160.313C-138.339 -160.313 -233 -65.6522 -233 51.1182C-233 167.889 -138.339 262.55 -21.5684 262.55C25.5847 262.55 69.1325 247.114 104.298 221.02C138.656 275.674 199.493 312 268.815 312Z" fill="url(#paint0_linear_107_11)"/>
<defs>
<linearGradient id="paint0_linear_107_11" x1="371.105" y1="312" x2="371.105" y2="-303.804" gradientUnits="userSpaceOnUse">
<stop stop-color="#B11A50"/>
<stop offset="0.663462" stop-color="#4B0B22"/>
</linearGradient>
</defs>
</svg>
