<svg width="960" height="295" viewBox="0 0 960 295" fill="none" xmlns="http://www.w3.org/2000/svg">
<path d="M699.841 0C604.615 0 526.812 74.5823 521.651 168.52C517.442 168.223 513.193 168.068 508.908 168.068C489.068 168.068 469.984 171.308 452.155 177.284C446.331 111.131 390.783 59.251 323.117 59.251C267.877 59.251 220.714 93.8274 202.086 142.519C185.734 136.378 168.022 133.018 149.525 133.018C66.9449 133.018 0 199.962 0 282.543C1.64932e-05 365.123 66.9449 432.068 149.525 432.068C220.828 432.068 280.471 382.159 295.433 315.37C304.352 317.312 313.615 318.336 323.117 318.336C326.346 318.336 329.548 318.216 332.718 317.983C331.223 327.28 330.442 336.816 330.442 346.534C330.442 445.098 410.344 525 508.908 525C604.135 525 681.939 450.417 687.099 356.479C691.307 356.776 695.556 356.932 699.841 356.932C749.315 356.932 794.085 336.798 826.41 304.28C857.304 370.688 924.617 416.727 1002.69 416.728C1110 416.728 1197 329.731 1197 222.414C1197 115.097 1110 28.0996 1002.69 28.0996C944.675 28.0998 892.603 53.5216 856.999 93.8311C826.849 37.9625 767.779 7.39137e-05 699.841 0Z" fill="url(#paint0_linear_107_5)"/>
<defs>
<linearGradient id="paint0_linear_107_5" x1="598.5" y1="0" x2="598.5" y2="525" gradientUnits="userSpaceOnUse">
<stop offset="0.336538" stop-color="#4B0B22"/>
<stop offset="1" stop-color="#B11A50"/>
</linearGradient>
</defs>
</svg>
